<?xml version="1.0" encoding="utf-8"?>
<svg version="1.1" xmlns="http://www.w3.org/2000/svg" xmlns:xlink="http://www.w3.org/1999/xlink" x="0px" y="0px"
	 viewBox="0 0 800 800" style="enable-background:new 0 0 800 800;" xml:space="preserve">
<style type="text/css">
	.st0{fill:#F7E323;}
</style>
<g id="Ebene_2">
	<rect x="223.9" y="383.2" class="st0" width="292.9" height="369.8"/>
</g>
<g id="Layer_1">
	<g>
		<g>
			<path d="M544.3,116.6c-30.6,0-59.6,11.7-81.5,33.1c-18.4,17.8-30.2,40.8-34.1,65.7H264L251.5,40c-0.4-6.3-4.8-11.7-11-13.5
				c-6.1-1.7-12.7,0.6-16.4,5.8L102.4,203.5c-4.8,6.8-3.2,16.2,3.5,21c6.8,4.8,16.2,3.2,21-3.5l97.4-136.9l9.3,131.2h-35.9
				c-4.2,0-8.2,1.7-11,4.8c-2.9,3.1-4.3,7.2-4,11.4l12,167.9l26.5,369.8c0.6,7.9,7.1,14,15,14h270.1c7.9,0,14.5-6.1,15-14
				l26.5-369.8l3.5-48.8c61.2-3.8,109.8-54.7,109.8-116.9C661.4,169.1,608.8,116.6,544.3,116.6z M492.5,752.9h-242l-24.4-339.6h21.6
				l14.1,198.3c0.6,7.9,7.2,14,15,14c0.4,0,0.7,0,1.1,0c8.3-0.6,14.6-7.8,14-16.1l-14-196.1h238.9L492.5,752.9z M519,383.2H223.9
				L214,245.5h21.8l6.6,93c14.2,132.2,15.4,81.3,20.3,53.8c-1.4,30.7,8.2,9,8.6,8.9c8.3-0.6,1.8-56.5,1.2-64.8l-6.4-90.8h161.6
				c5.2,51.2,43.6,93.2,93.7,103.1L519,383.2z M523.7,318.1c-34.4-8.4-60.7-37.3-65.5-72.7h70.8L523.7,318.1z M553.8,320.1l6.4-88.7
				c0.3-4.2-1.2-8.3-4-11.4c-2.9-3.1-6.9-4.8-11-4.8h-85.8c8.4-39.5,43.1-68.6,85-68.6c47.9,0,87,39,87,87
				C631.2,278.4,597.3,315.4,553.8,320.1z"/>
		</g>
	</g>
</g>
</svg>
