<?xml version="1.0" encoding="iso-8859-1"?>
<!-- Uploaded to: SVG Repo, www.svgrepo.com, Generator: SVG Repo Mixer Tools -->
<!DOCTYPE svg PUBLIC "-//W3C//DTD SVG 1.1//EN" "http://www.w3.org/Graphics/SVG/1.1/DTD/svg11.dtd">
<svg version="1.1" id="Capa_1" xmlns="http://www.w3.org/2000/svg" xmlns:xlink="http://www.w3.org/1999/xlink" 
	 viewBox="0 0 483.503 483.503" xml:space="preserve">
<g>
	<rect x="197.856" y="244.888" style="fill:#999999;" width="45.148" height="131.758"/>
	<rect x="243.003" y="221.888" style="fill:#CCCCCC;" width="213" height="154.758"/>
	<rect x="267.069" y="97.115" style="fill:#B3B3B3;" width="197.934" height="124.773"/>
	<polygon style="fill:#999999;" points="456.003,276.388 376.503,276.388 376.503,217.388 477.003,217.388 477.003,240.705 	"/>
	<rect x="360.319" y="217.388" style="fill:#808080;" width="27.684" height="59"/>
	<rect x="282.003" y="166.188" style="fill:#496A72;" width="85.033" height="78.7"/>
	<rect x="343.003" y="166.188" style="fill:#738B93;" width="38" height="78.7"/>
	<rect x="10.636" y="217.388" style="fill:#738B93;" width="332.367" height="27.5"/>
	<rect x="267.069" y="97.115" style="fill:#999999;" width="197.934" height="68.773"/>
	<rect x="280.073" y="110.118" style="fill:#B5E4F4;" width="171.93" height="42.77"/>
	<rect x="444.073" y="110.118" style="fill:#9CC7D3;" width="7.93" height="42.77"/>
	<g>
		<circle style="fill:#EF7954;" cx="302.036" cy="131.501" r="8"/>
		<circle style="fill:#EF7954;" cx="334.036" cy="131.501" r="8"/>
		<circle style="fill:#EF7954;" cx="366.036" cy="131.501" r="8"/>
		<circle style="fill:#EF7954;" cx="398.036" cy="131.501" r="8"/>
		<circle style="fill:#EF7954;" cx="430.036" cy="131.501" r="8"/>
	</g>
	<rect x="221.922" y="97.115" style="fill:#808080;" width="45.148" height="120.273"/>
	<rect x="290.003" y="174.188" style="fill:#244D54;" width="43" height="43.2"/>
	<rect x="0" y="217.388" style="fill:#496A72;" width="49.003" height="27.5"/>
	<path style="fill:#638591;" d="M136.003,205.888h-104.5c-6.351,0-11.5,5.149-11.5,11.5v0h116V205.888z"/>
	<path style="fill:#99B5C4;" d="M333.003,205.888H87c-6.351,0-11.5,5.149-11.5,11.5v0h257.503V205.888z"/>
	<polygon style="opacity:0.49;fill:#F2F2F2;" points="373.453,110.118 330.683,152.888 280.073,152.888 280.073,110.118 	"/>
	<polygon style="opacity:0.49;fill:#F2F2F2;" points="452.003,117.908 452.003,152.888 417.023,152.888 	"/>
	<path style="fill:#496A72;" d="M404.503,173.888h14.5v39h-14.5c-10.77,0-19.5-8.73-19.5-19.5v0
		C385.003,182.619,393.734,173.888,404.503,173.888z"/>
	<circle style="fill:#738B93;" cx="418.974" cy="193.388" r="19.5"/>
	<circle style="fill:#496A72;" cx="418.974" cy="193.388" r="9.533"/>
	<circle style="fill:#738B93;" cx="335.003" cy="263.388" r="7"/>
	<circle style="fill:#738B93;" cx="283.003" cy="263.388" r="7"/>
	<circle style="fill:#738B93;" cx="309.003" cy="263.388" r="7"/>
	<g>
		<rect x="307.003" y="286.888" style="fill:#738B93;" width="19.5" height="45"/>
		<rect x="302.003" y="286.888" style="fill:#244D54;" width="5" height="45"/>
		<rect x="313.003" y="292.888" style="fill:#244D54;" width="7.5" height="33"/>
		<polygon style="fill:#808080;" points="345.623,332.268 341.383,336.508 313.003,308.128 313.003,299.648 		"/>
		<circle style="fill:#EF7954;" cx="343.503" cy="334.388" r="7"/>
	</g>
	<rect x="80.503" y="244.888" style="fill:#738B93;" width="9.5" height="131.758"/>
	<rect x="30.503" y="244.888" style="fill:#738B93;" width="9.5" height="131.758"/>
	<rect x="40.003" y="345.388" style="fill:#738B93;" width="40.5" height="8.5"/>
	<polygon style="fill:#496A72;" points="40.003,244.888 30.503,244.888 30.503,281.888 40.003,277.388 	"/>
	<polygon style="fill:#496A72;" points="90.003,244.888 80.503,244.888 80.503,262.388 90.003,257.888 	"/>
	<polygon style="fill:#808080;" points="243.003,262.888 197.855,283.388 197.855,244.888 243.003,244.888 	"/>
	<path style="fill:#999999;" d="M40.753,386.388h-11v-4.242c0-3.038,2.462-5.5,5.5-5.5h0c3.038,0,5.5,2.462,5.5,5.5V386.388z"/>
	<path style="fill:#999999;" d="M90.753,386.388h-11v-4.242c0-3.038,2.462-5.5,5.5-5.5h0c3.038,0,5.5,2.462,5.5,5.5V386.388z"/>
	<path style="fill:#999999;" d="M212.003,386.388h-11v-4.242c0-3.038,2.462-5.5,5.5-5.5h0c3.038,0,5.5,2.462,5.5,5.5V386.388z"/>
	<path style="fill:#999999;" d="M255.503,386.388h-11v-4.242c0-3.038,2.462-5.5,5.5-5.5h0c3.038,0,5.5,2.462,5.5,5.5V386.388z"/>
	<path style="fill:#999999;" d="M411.105,386.388h-11v-4.242c0-3.038,2.462-5.5,5.5-5.5l0,0c3.038,0,5.5,2.462,5.5,5.5V386.388z"/>
	<path style="fill:#999999;" d="M454.605,386.388h-11v-4.242c0-3.038,2.462-5.5,5.5-5.5l0,0c3.038,0,5.5,2.462,5.5,5.5V386.388z"/>
	<rect x="328.003" y="205.888" style="fill:#638591;" width="5" height="11.5"/>
	<rect x="388.003" y="217.388" style="fill:#808080;" width="95.5" height="9"/>
	<rect x="281.003" y="254.888" style="fill:#244D54;" width="4" height="17"/>
	
		<rect x="300.503" y="261.388" transform="matrix(0.7071 -0.7071 0.7071 0.7071 -95.7387 295.6428)" style="fill:#244D54;" width="17" height="4"/>
	
		<rect x="326.503" y="261.388" transform="matrix(0.7071 0.7071 -0.7071 0.7071 284.3637 -159.7383)" style="fill:#244D54;" width="17" height="4"/>
</g>
</svg>