<?xml version="1.0" encoding="utf-8"?>
<!-- Generator: Adobe Illustrator 24.3.0, SVG Export Plug-In . SVG Version: 6.00 Build 0)  -->
<svg version="1.1" xmlns="http://www.w3.org/2000/svg" xmlns:xlink="http://www.w3.org/1999/xlink" x="0px" y="0px"
	 viewBox="0 0 566.93 566.93" style="enable-background:new 0 0 566.93 566.93;" xml:space="preserve">
<style type="text/css">
	.st0{fill:#003769;}
	.st1{fill:#FFFFFF;}
</style>
<g id="Color">
	<rect class="st0" width="566.93" height="566.93"/>
</g>
<g id="Naming">
	<rect x="56.69" y="421.8" class="st1" width="453.54" height="6.8"/>
	<g>
		<path class="st1" d="M68.3,395.48c-4.21-1.87-7.36-4.47-9.47-7.82c-2.1-3.35-3.16-7.21-3.16-11.6h17.07
			c0.06,2.37,0.58,4.19,1.56,5.47c0.98,1.28,2.31,2.13,4,2.58c1.69,0.44,3.81,0.67,6.36,0.67c2.96,0,5.18-0.49,6.67-1.47
			c1.48-0.98,2.22-2.39,2.22-4.22c0-1.24-0.3-2.24-0.89-2.98c-0.59-0.74-1.59-1.35-2.98-1.82c-1.39-0.47-3.42-0.92-6.09-1.33
			l-4.98-0.8c-14.64-2.37-21.96-9.19-21.96-20.45c0-3.73,0.95-7.08,2.84-10.04c1.9-2.96,4.78-5.29,8.67-6.98
			c3.88-1.69,8.7-2.53,14.45-2.53c8.41,0,14.93,1.76,19.56,5.29c4.62,3.53,7.11,8.73,7.47,15.6H92.92c-0.12-2.55-0.97-4.41-2.53-5.6
			c-1.57-1.18-4.08-1.78-7.51-1.78c-2.73,0-4.76,0.46-6.09,1.38c-1.33,0.92-2,2.21-2,3.87c0,1.24,0.33,2.27,0.98,3.07
			c0.65,0.8,1.63,1.44,2.93,1.91c1.3,0.48,3.08,0.89,5.33,1.24l5.24,0.89c5.21,0.89,9.48,2.15,12.8,3.78
			c3.32,1.63,5.78,3.76,7.38,6.4c1.6,2.64,2.4,5.82,2.4,9.56c0,4.62-1.15,8.46-3.47,11.51c-2.31,3.05-5.56,5.32-9.73,6.8
			c-4.18,1.48-9.08,2.22-14.71,2.22C77.72,398.28,72.5,397.35,68.3,395.48z"/>
		<path class="st1" d="M129.45,394.23c-4.92-2.7-8.71-6.53-11.38-11.51c-2.67-4.98-4-10.81-4-17.51c0-6.7,1.3-12.53,3.91-17.51
			c2.61-4.98,6.34-8.81,11.2-11.51c4.86-2.7,10.64-4.04,17.33-4.04c5.39,0,10.3,0.98,14.71,2.93c4.41,1.96,8.05,4.82,10.89,8.58
			c2.84,3.76,4.65,8.25,5.42,13.47h-17.96c-0.83-3.14-2.4-5.56-4.71-7.25c-2.31-1.69-5.1-2.53-8.36-2.53
			c-4.56,0-8.03,1.56-10.4,4.67c-2.37,3.11-3.56,7.51-3.56,13.2c0,5.69,1.17,10.09,3.51,13.2c2.34,3.11,5.82,4.67,10.44,4.67
			c3.5,0,6.43-0.96,8.8-2.89c2.37-1.93,3.88-4.64,4.53-8.13h17.78c-0.65,5.51-2.4,10.24-5.24,14.18c-2.84,3.94-6.49,6.93-10.93,8.98
			c-4.44,2.04-9.42,3.07-14.93,3.07C140.06,398.28,134.37,396.93,129.45,394.23z"/>
		<path class="st1" d="M239.41,333.56v63.29h-17.78V372.5h-21.78v24.36h-17.78v-63.29h17.78v23.11h21.78v-23.11H239.41z"/>
		<path class="st1" d="M334.26,333.56l-17.07,63.29h-19.91l-3.91-18.76c-1.9-9.07-3.32-16.77-4.27-23.11
			c-1.07,6.64-2.52,14.34-4.36,23.11l-3.91,18.76h-19.91l-17.07-63.29h18.58l4.09,18.22c0.95,4.21,1.91,8.56,2.89,13.07
			c0.98,4.5,1.79,8.59,2.44,12.27c1.54-9.07,3.11-17.51,4.71-25.33l3.73-18.22h17.51l3.73,18.22c1.6,7.82,3.17,16.27,4.71,25.33
			c0.65-3.67,1.47-7.76,2.45-12.27c0.98-4.5,1.94-8.86,2.89-13.07l4.09-18.22H334.26z"/>
		<path class="st1" d="M369.47,388.59h-24.8l-2.67,8.27h-18.13l22.49-63.29h21.33l23.29,63.29h-18.85L369.47,388.59z M364.67,373.92
			l-4.71-14.58c-1.36-4.15-2.37-7.5-3.02-10.05c-1.3,4.5-2.31,7.85-3.02,10.05l-4.62,14.58H364.67z"/>
		<path class="st1" d="M420.67,375.52h-7.47v21.33h-17.78v-63.29h30.4c4.86,0,9.11,0.8,12.76,2.4c3.64,1.6,6.47,3.93,8.49,6.98
			c2.01,3.05,3.02,6.68,3.02,10.89c0,4.33-1.05,8.06-3.16,11.2c-2.1,3.14-5.05,5.51-8.84,7.11l14.49,24.71h-19.82L420.67,375.52z
			 M413.2,362.01h11.29c2.37,0,4.28-0.67,5.73-2c1.45-1.33,2.18-3.1,2.18-5.29c0-2.19-0.73-3.96-2.18-5.29c-1.45-1.33-3.37-2-5.73-2
			H413.2V362.01z"/>
		<path class="st1" d="M510.17,381.03v15.82h-54.31v-13.69l18.67-20.89c3.55-4.03,7.53-8.39,11.91-13.07
			c-8.18,0.12-14.31,0.18-18.4,0.18h-11.29v-15.82h52.98v13.51l-18.76,21.07c-3.56,4.03-7.53,8.39-11.91,13.07
			c8.18-0.12,14.31-0.18,18.4-0.18H510.17z"/>
	</g>
	<path class="st1" d="M89.7,463.45c2.82,1.4,4.97,3.38,6.46,5.94c1.49,2.56,2.23,5.56,2.23,9c0,3.43-0.74,6.43-2.23,9
		c-1.49,2.56-3.64,4.55-6.46,5.94c-2.82,1.4-6.17,2.1-10.06,2.1h-9.2v14.84H56.69v-48.91h22.94
		C83.53,461.35,86.88,462.05,89.7,463.45z M83.07,482.47c1.1-0.94,1.65-2.3,1.65-4.09c0-1.79-0.55-3.15-1.65-4.09
		c-1.1-0.94-2.59-1.41-4.47-1.41h-8.17v10.99h8.17C80.48,483.88,81.97,483.41,83.07,482.47z"/>
	<path class="st1" d="M121.26,493.77h-5.77v16.48h-13.74v-48.91h23.49c3.75,0,7.04,0.62,9.86,1.85c2.82,1.24,5,3.03,6.56,5.39
		c1.56,2.36,2.34,5.16,2.34,8.41c0,3.34-0.81,6.23-2.44,8.65c-1.63,2.43-3.9,4.26-6.83,5.49l11.2,19.09H130.6L121.26,493.77z
		 M115.49,483.33h8.72c1.83,0,3.31-0.52,4.43-1.55c1.12-1.03,1.68-2.39,1.68-4.09c0-1.69-0.56-3.06-1.68-4.09
		c-1.12-1.03-2.6-1.55-4.43-1.55h-8.72V483.33z"/>
	<path class="st1" d="M158.04,508.2c-3.89-2.11-6.91-5.08-9.07-8.93c-2.15-3.85-3.23-8.33-3.23-13.46c0-5.13,1.07-9.62,3.23-13.46
		c2.15-3.85,5.17-6.82,9.07-8.93c3.89-2.11,8.36-3.16,13.39-3.16c5.04,0,9.5,1.05,13.39,3.16c3.89,2.11,6.91,5.08,9.07,8.93
		c2.15,3.85,3.23,8.33,3.23,13.46c0,5.13-1.08,9.62-3.23,13.46c-2.15,3.85-5.17,6.82-9.07,8.93c-3.89,2.11-8.36,3.16-13.39,3.16
		C166.4,511.36,161.93,510.3,158.04,508.2z M177.45,497.86c1.72-1.07,3.04-2.63,3.98-4.67c0.94-2.04,1.41-4.5,1.41-7.38
		c0-2.84-0.47-5.29-1.41-7.35c-0.94-2.06-2.27-3.63-3.98-4.7c-1.72-1.08-3.72-1.61-6.01-1.61c-2.29,0-4.29,0.54-6.01,1.61
		c-1.72,1.08-3.05,2.64-3.98,4.7c-0.94,2.06-1.41,4.51-1.41,7.35c0,2.88,0.47,5.35,1.41,7.38c0.94,2.04,2.27,3.6,3.98,4.67
		c1.72,1.08,3.72,1.61,6.01,1.61C173.72,499.47,175.73,498.94,177.45,497.86z"/>
	<path class="st1" d="M236.39,464.41c3.78,2.04,6.58,4.88,8.41,8.52c1.83,3.64,2.75,7.93,2.75,12.88c0,4.94-0.92,9.24-2.75,12.88
		c-1.83,3.64-4.64,6.48-8.41,8.52c-3.78,2.04-8.51,3.06-14.18,3.06h-21.36v-48.91h21.36C227.88,461.35,232.61,462.37,236.39,464.41z
		 M230.24,495.66c2.01-2.04,3.02-5.32,3.02-9.86c0-4.53-1.01-7.82-3.02-9.86c-2.02-2.04-4.79-3.06-8.31-3.06h-7.35v25.83h7.35
		C225.45,498.72,228.22,497.7,230.24,495.66z"/>
	<path class="st1" d="M261.98,509.12c-3.32-1.49-5.93-3.72-7.83-6.7c-1.9-2.98-2.85-6.62-2.85-10.92v-30.15h13.74v30.29
		c0,2.56,0.73,4.53,2.2,5.91c1.47,1.37,3.48,2.06,6.04,2.06c2.56,0,4.58-0.69,6.04-2.06c1.46-1.37,2.2-3.34,2.2-5.91v-30.29h13.74
		v30.15c0,4.3-0.92,7.94-2.75,10.92c-1.83,2.98-4.4,5.21-7.69,6.7c-3.3,1.49-7.14,2.23-11.54,2.23
		C269.06,511.36,265.3,510.61,261.98,509.12z"/>
	<path class="st1" d="M389.78,473.58h-14.42v36.68h-13.74v-36.68h-14.42v-12.23h42.59V473.58z"/>
	<path class="st1" d="M393.38,461.35h13.74v48.91h-13.74V461.35z"/>
	<path class="st1" d="M423.13,508.2c-3.89-2.11-6.92-5.08-9.07-8.93c-2.15-3.85-3.23-8.33-3.23-13.46c0-5.13,1.07-9.62,3.23-13.46
		c2.15-3.85,5.17-6.82,9.07-8.93c3.89-2.11,8.36-3.16,13.39-3.16c5.04,0,9.5,1.05,13.39,3.16c3.89,2.11,6.91,5.08,9.07,8.93
		c2.15,3.85,3.23,8.33,3.23,13.46c0,5.13-1.08,9.62-3.23,13.46c-2.15,3.85-5.18,6.82-9.07,8.93c-3.89,2.11-8.36,3.16-13.39,3.16
		C431.49,511.36,427.03,510.3,423.13,508.2z M442.54,497.86c1.72-1.07,3.05-2.63,3.99-4.67c0.94-2.04,1.41-4.5,1.41-7.38
		c0-2.84-0.47-5.29-1.41-7.35c-0.94-2.06-2.27-3.63-3.99-4.7c-1.72-1.08-3.72-1.61-6.01-1.61c-2.29,0-4.29,0.54-6.01,1.61
		c-1.72,1.08-3.04,2.64-3.98,4.7c-0.94,2.06-1.41,4.51-1.41,7.35c0,2.88,0.47,5.35,1.41,7.38c0.94,2.04,2.27,3.6,3.98,4.67
		c1.72,1.08,3.72,1.61,6.01,1.61C438.82,499.47,440.82,498.94,442.54,497.86z"/>
	<path class="st1" d="M510.24,461.35v48.91h-14.49l-10.37-17.38c-1.24-2.06-2.44-4.13-3.61-6.22c-1.17-2.08-2.21-4.04-3.13-5.87
		c0.23,6.04,0.34,13.21,0.34,21.5v7.97h-13.05v-48.91h14.49l10.37,17.38c2.79,4.72,5.04,8.77,6.73,12.16
		c-0.23-6.09-0.34-13.28-0.34-21.57v-7.97H510.24z"/>
	<path class="st1" d="M327.96,481.34l19.23,28.92h-16.21l-12.71-19.64l-5.56,5.63v14.01h-13.74v-48.91h13.74v19.37l17.86-19.37
		h16.62L327.96,481.34z"/>
</g>
</svg>
